<svg width="164" height="156" viewBox="0 0 164 156" fill="none" xmlns="http://www.w3.org/2000/svg">
<g id="checklist/pana">
<g id="Floor">
<path id="Vector" d="M163.5 155.085C163.5 155.139 127.002 155.185 82 155.185C36.9982 155.185 0.5 155.139 0.5 155.085C0.5 155.031 36.9905 154.985 82.0192 154.985C127.048 154.985 163.5 155.031 163.5 155.085Z" fill="#263238"/>
</g>
<g id="Checklist">
<path id="Vector_2" d="M134.901 12.1772H41.6719V139.287H134.901V12.1772Z" fill="#455A64"/>
<path id="Vector_3" d="M131.214 131.728H113.949H49.4375V17.3143H131.214V117.495V131.728Z" fill="#E0E0E0"/>
<path id="Vector_4" d="M129.925 129.606H112.814H48.8828V15.8036H129.925V115.449V129.606Z" fill="#EBEBEB"/>
<path id="Vector_5" d="M121.213 120.75L111.879 128.313H47.3672V16.0905H129.144V114.351L121.213 120.75Z" fill="#FAFAFA"/>
<path id="Vector_6" d="M121.215 120.739C121.215 120.739 121.381 120.597 121.715 120.326L123.211 119.109L129.127 114.317V114.339C129.127 98.1973 129.096 62.3174 129.069 16.079L129.158 16.1708H48.0922H47.381L47.481 16.0713C47.481 58.2628 47.481 97.1837 47.4579 128.294L47.381 128.213L111.893 128.259H111.87L118.882 122.602L120.639 121.19C121.023 120.877 121.227 120.724 121.227 120.724L120.65 121.202L118.893 122.652L111.904 128.336L47.3695 128.389H47.2888V128.309C47.2888 97.199 47.2888 58.2781 47.2695 16.0866V15.9872H48.0807H129.146H129.239V16.0752C129.212 62.3289 129.189 98.1935 129.181 114.336L123.241 119.106L121.738 120.356L121.215 120.739Z" fill="#263238"/>
<path id="Vector_7" d="M77.225 8.2489H99.5799C101.023 8.2489 102.406 8.81915 103.426 9.83421C104.446 10.8493 105.02 12.226 105.02 13.6615V19.6632H71.5508V13.891C71.5518 12.3943 72.1501 10.9592 73.2141 9.9012C74.2781 8.84321 75.7208 8.2489 77.225 8.2489Z" fill="#E8B132"/>
<path id="Vector_8" d="M79.7537 8.24883L78.5312 2.09033H97.8029L96.7304 8.24883H79.7537Z" fill="#E8B132"/>
<path id="Vector_9" d="M69.7 47.6786H55.9258V33.9692H69.7V47.6786ZM56.3102 47.2961H69.3156V34.3518H56.3102V47.2961Z" fill="#E8B132"/>
<path id="Vector_10" d="M118.384 37.2823C118.384 37.3362 108.793 37.3823 96.9675 37.3823C85.1423 37.3823 75.5469 37.3362 75.5469 37.2823C75.5469 37.2285 85.1347 37.1824 96.9675 37.1824C108.8 37.1824 118.384 37.2247 118.384 37.2823Z" fill="#263238"/>
<path id="Vector_11" d="M118.384 40.1279C118.384 40.1856 108.793 40.2279 96.9675 40.2279C85.1423 40.2279 75.5469 40.1856 75.5469 40.1279C75.5469 40.0702 85.1347 40.028 96.9675 40.028C108.8 40.028 118.384 40.0741 118.384 40.1279Z" fill="#263238"/>
<path id="Vector_12" d="M118.384 42.9776C118.384 43.0315 108.793 43.0776 96.9675 43.0776C85.1423 43.0776 75.5469 43.0315 75.5469 42.9776C75.5469 42.9238 85.1347 42.8777 96.9675 42.8777C108.8 42.8777 118.384 42.9238 118.384 42.9776Z" fill="#263238"/>
<path id="Vector_13" d="M118.384 45.8279C118.384 45.8817 108.793 45.9278 96.9675 45.9278C85.1423 45.9278 75.5469 45.8817 75.5469 45.8279C75.5469 45.774 85.1347 45.7279 96.9675 45.7279C108.8 45.7279 118.384 45.7664 118.384 45.8279Z" fill="#263238"/>
<path id="Vector_14" d="M69.7 68.8046H55.9258V55.0952H69.7V68.8046ZM56.3102 68.422H69.3156V55.4777H56.3102V68.422Z" fill="#E8B132"/>
<path id="Vector_15" d="M58.6641 62.233L60.494 60.2784L63.5425 62.7035L70.52 55.9636L72.1923 57.9259L63.408 66.5478L58.6641 62.233Z" fill="#E8B132"/>
<path id="Vector_16" d="M118.384 58.4083C118.384 58.4621 108.793 58.5083 96.9675 58.5083C85.1423 58.5083 75.5469 58.4621 75.5469 58.4083C75.5469 58.3545 85.1347 58.3083 96.9675 58.3083C108.8 58.3083 118.384 58.3545 118.384 58.4083Z" fill="#263238"/>
<path id="Vector_17" d="M118.384 61.2583C118.384 61.3121 108.793 61.3582 96.9675 61.3582C85.1423 61.3582 75.5469 61.3121 75.5469 61.2583C75.5469 61.2045 85.1347 61.1583 96.9675 61.1583C108.8 61.1583 118.384 61.2006 118.384 61.2583Z" fill="#263238"/>
<path id="Vector_18" d="M118.384 64.1041C118.384 64.1618 108.793 64.2041 96.9675 64.2041C85.1423 64.2041 75.5469 64.1618 75.5469 64.1041C75.5469 64.0464 85.1347 64.0042 96.9675 64.0042C108.8 64.0042 118.384 64.0503 118.384 64.1041Z" fill="#263238"/>
<path id="Vector_19" d="M118.384 66.9538C118.384 67.0077 108.793 67.0538 96.9675 67.0538C85.1423 67.0538 75.5469 67.0077 75.5469 66.9538C75.5469 66.9 85.1347 66.8539 96.9675 66.8539C108.8 66.8539 118.384 66.9 118.384 66.9538Z" fill="#263238"/>
<path id="Vector_20" d="M69.7 89.2504H55.9258V75.541H69.7V89.2504ZM56.3102 88.8678H69.3156V75.9235H56.3102V88.8678Z" fill="#E8B132"/>
<path id="Vector_21" d="M58.6641 82.6784L60.494 80.7237L63.5425 83.1489L70.52 76.4089L72.1923 78.3712L63.408 86.9931L58.6641 82.6784Z" fill="#E8B132"/>
<path id="Vector_22" d="M118.384 78.8541C118.384 78.9079 108.793 78.9541 96.9675 78.9541C85.1423 78.9541 75.5469 78.9079 75.5469 78.8541C75.5469 78.8003 85.1347 78.7542 96.9675 78.7542C108.8 78.7542 118.384 78.7964 118.384 78.8541Z" fill="#263238"/>
<path id="Vector_23" d="M118.384 81.6999C118.384 81.7576 108.793 81.7999 96.9675 81.7999C85.1423 81.7999 75.5469 81.7576 75.5469 81.6999C75.5469 81.6423 85.1347 81.6 96.9675 81.6C108.8 81.6 118.384 81.6461 118.384 81.6999Z" fill="#263238"/>
<path id="Vector_24" d="M118.384 84.5496C118.384 84.6073 108.793 84.6495 96.9675 84.6495C85.1423 84.6495 75.5469 84.6073 75.5469 84.5496C75.5469 84.4919 85.1347 84.4496 96.9675 84.4496C108.8 84.4496 118.384 84.4958 118.384 84.5496Z" fill="#263238"/>
<path id="Vector_25" d="M118.384 87.3993C118.384 87.4532 108.793 87.4993 96.9675 87.4993C85.1423 87.4993 75.5469 87.4532 75.5469 87.3993C75.5469 87.3455 85.1347 87.2994 96.9675 87.2994C108.8 87.2994 118.384 87.3455 118.384 87.3993Z" fill="#263238"/>
<path id="Vector_26" d="M69.7 108.992H55.9258V95.2825H69.7V108.992ZM56.3102 108.609H69.3156V95.665H56.3102V108.609Z" fill="#E8B132"/>
<path id="Vector_27" d="M58.6641 102.42L60.494 100.466L63.5425 102.891L70.52 96.151L72.1923 98.1095L63.408 106.731L58.6641 102.42Z" fill="#E8B132"/>
<path id="Vector_28" d="M118.384 98.5917C118.384 98.6494 108.793 98.6917 96.9675 98.6917C85.1423 98.6917 75.5469 98.6494 75.5469 98.5917C75.5469 98.5341 85.1347 98.4918 96.9675 98.4918C108.8 98.4918 118.384 98.5533 118.384 98.5917Z" fill="#263238"/>
<path id="Vector_29" d="M118.384 101.441C118.384 101.495 108.793 101.541 96.9675 101.541C85.1423 101.541 75.5469 101.495 75.5469 101.441C75.5469 101.388 85.1347 101.341 96.9675 101.341C108.8 101.341 118.384 101.388 118.384 101.441Z" fill="#263238"/>
<path id="Vector_30" d="M118.384 104.291C118.384 104.345 108.793 104.391 96.9675 104.391C85.1423 104.391 75.5469 104.345 75.5469 104.291C75.5469 104.237 85.1347 104.191 96.9675 104.191C108.8 104.191 118.384 104.234 118.384 104.291Z" fill="#263238"/>
<path id="Vector_31" d="M118.384 107.137C118.384 107.195 108.793 107.237 96.9675 107.237C85.1423 107.237 75.5469 107.195 75.5469 107.137C75.5469 107.08 85.1347 107.037 96.9675 107.037C108.8 107.037 118.384 107.083 118.384 107.137Z" fill="#263238"/>
<path id="Vector_32" d="M114.442 109.734L105.477 128.209H111.877L114.442 109.734Z" fill="#E0E0E0"/>
<path id="Vector_33" d="M111.883 128.313L114.447 109.837L129.148 114.351L111.883 128.313Z" fill="#FAFAFA"/>
<path id="Vector_34" d="M111.883 128.313L116.827 124.262L129.086 114.275L129.121 114.443L123.443 112.706L114.435 109.925L114.555 109.849C113.786 115.204 113.128 119.813 112.663 123.08C112.198 126.259 111.96 127.9 111.894 128.313C111.893 128.285 111.893 128.257 111.894 128.229L111.929 127.976C111.96 127.735 112.002 127.399 112.06 126.97C112.179 126.071 112.348 124.782 112.563 123.145C113.009 119.852 113.632 115.219 114.359 109.807V109.7L114.462 109.73L123.493 112.5L129.167 114.244L129.344 114.298L129.202 114.412C124.239 118.394 119.898 121.875 116.792 124.358L113.167 127.253L112.198 128.018L111.952 128.213L111.883 128.313Z" fill="#263238"/>
<g id="Group" opacity="0.3">
<path id="Vector_35" d="M96.4634 2.09058L95.4023 8.24907H96.7248L97.7974 2.09058H96.1097" fill="#081411"/>
</g>
</g>
<g id="Character">
<path id="Vector_36" d="M40.0158 67.0414C40.4793 67.0761 40.9451 67.0177 41.3854 66.8694C41.8257 66.7211 42.2314 66.4861 42.5784 66.1783C42.9253 65.8706 43.2064 65.4964 43.4048 65.0782C43.6033 64.6599 43.715 64.2062 43.7333 63.7441C43.8063 61.8698 43.8717 59.9763 43.8717 59.9763C43.8717 59.9763 46.7242 59.7124 46.9472 56.9162C47.1701 54.12 47.0586 47.6249 47.0586 47.6249C45.495 46.8399 43.7489 46.4849 42.0011 46.5965C40.2533 46.7081 38.5672 47.2824 37.1172 48.2599L37.2902 58.1441V63.4648C37.294 65.2321 38.2282 66.9075 40.0158 67.0414Z" fill="#FFBE9D"/>
<path id="Vector_37" d="M44.1184 53.4738C43.9101 53.1758 43.5964 52.967 43.2401 52.889C42.8838 52.811 42.5111 52.8696 42.1963 53.053C41.8768 53.2739 41.6465 53.6005 41.5465 53.9746C41.4465 54.3488 41.4833 54.746 41.6504 55.0957C41.7959 55.3551 41.9941 55.5816 42.2324 55.7607C42.4706 55.9398 42.7437 56.0677 43.0343 56.1361C43.292 56.1919 43.5204 56.3391 43.6767 56.5504C43.8331 56.7616 43.9068 57.0223 43.8839 57.2837C43.7656 58.022 43.4189 58.7052 42.8921 59.2383C42.0213 60.12 40.8622 60.6627 39.6244 60.7684C38.4211 60.9099 37.0448 60.6613 36.3452 59.6782C35.8339 58.9629 35.7993 58.0257 35.7801 57.1498C35.7365 55.0791 35.6929 53.0084 35.6493 50.9377C35.6041 50.1914 35.6519 49.4423 35.7916 48.7077C35.9388 47.9666 36.3617 47.3082 36.9756 46.8639C37.6638 46.4126 38.5326 46.3743 39.313 46.1257C40.2933 45.8082 41.1237 45.1656 42.0386 44.6989C42.9536 44.2322 44.0723 43.953 44.9911 44.412C45.6523 44.741 46.0944 45.3951 46.7326 45.7585C47.6475 46.2749 48.8893 46.141 49.3314 47.4951C49.487 47.9581 49.487 48.4589 49.3314 48.9219C48.7124 50.7388 46.4519 51.4732 44.8219 50.6891C44.7912 50.9951 45.0949 51.6798 44.7681 52.6514C44.6643 52.9651 44.6297 53.4356 44.1415 53.447" fill="#263238"/>
<path id="Vector_38" d="M36.3246 47.6785C36.7727 46.7902 37.0788 45.8377 37.2319 44.8556C37.3044 44.3636 37.262 43.8617 37.108 43.3887C36.954 42.9157 36.6925 42.4844 36.3439 42.1282C35.8293 41.6836 35.1643 41.4499 34.4832 41.4741C33.8362 41.5108 33.2164 41.7454 32.7085 42.146C32.2007 42.5466 31.8296 43.0934 31.6461 43.7118C31.4877 44.3353 31.5122 44.9909 31.7166 45.601C31.921 46.2111 32.2967 46.7502 32.7994 47.1545C33.3134 47.5473 33.9225 47.798 34.5652 47.8813C35.2079 47.9646 35.8612 47.8775 36.4592 47.6288" fill="#263238"/>
<path id="Vector_39" d="M36.8769 46.6647C36.8561 47.0081 36.7076 47.3315 36.4603 47.572C36.213 47.8124 35.8846 47.9526 35.5391 47.9653C35.5391 47.9079 35.9543 47.797 36.3079 47.4297C36.6616 47.0625 36.8231 46.6494 36.8769 46.6647Z" fill="#E8B132"/>
<path id="Vector_40" d="M35.9534 47.3534C35.7331 47.5832 35.4726 47.7711 35.1846 47.9081C34.8768 48.0826 34.5313 48.181 34.1773 48.195C33.9526 48.207 33.7282 48.1654 33.5228 48.0736C33.3175 47.9817 33.1373 47.8424 32.9971 47.6671C32.8731 47.4826 32.7904 47.2737 32.7546 47.0546C32.7188 46.8355 32.7307 46.6112 32.7895 46.3971C32.8788 46.0573 33.04 45.7404 33.2624 45.4676C33.4465 45.2091 33.6725 44.9829 33.9313 44.7982C33.7602 45.0626 33.5754 45.318 33.3777 45.5632C33.1848 45.8296 33.0463 46.1312 32.9702 46.4507C32.9223 46.6391 32.9142 46.8353 32.9467 47.027C32.9791 47.2186 33.0513 47.4014 33.1586 47.5638C33.2815 47.7131 33.4373 47.8322 33.614 47.9118C33.7907 47.9914 33.9835 48.0294 34.1773 48.0228C34.5059 48.0176 34.829 47.9392 35.1231 47.7933C35.6228 47.537 35.9342 47.3228 35.9534 47.3534Z" fill="#263238"/>
<path id="Vector_41" d="M31.1568 50.5242C31.2147 50.6214 31.2599 50.7255 31.2913 50.8341C31.391 51.1207 31.5321 51.3913 31.7103 51.6373C31.8289 51.8153 31.9949 51.9568 32.1898 52.046C32.3847 52.1352 32.6008 52.1685 32.8137 52.1423C33.0685 52.0706 33.3004 51.9348 33.487 51.7478C33.6735 51.5608 33.8084 51.3291 33.8786 51.075C34.0167 50.5401 34.1131 49.9953 34.1669 49.4455C34.2212 48.9741 34.4077 48.5274 34.7051 48.1564C34.9181 47.9124 35.2082 47.7479 35.5278 47.6898C35.6433 47.6616 35.765 47.6724 35.8738 47.7204C35.8738 47.7204 35.7469 47.7204 35.5432 47.7663C35.2544 47.8457 34.9986 48.0145 34.8127 48.2483C34.5508 48.6077 34.3902 49.0303 34.3476 49.4723C34.3032 50.0353 34.2093 50.5934 34.0669 51.1401C33.9876 51.427 33.8329 51.6878 33.6187 51.8955C33.4045 52.1033 33.1386 52.2505 32.8483 52.322C32.5828 52.3642 32.3108 52.3128 32.0794 52.1767C31.8874 52.0607 31.7223 51.9056 31.595 51.7215C31.4188 51.4584 31.2888 51.1673 31.2106 50.8608C31.1711 50.7531 31.1529 50.6388 31.1568 50.5242Z" fill="#263238"/>
<path id="Vector_42" d="M29.7696 74.1216C29.7696 74.1216 28.328 84.6102 29.7696 85.9413C31.2113 87.2725 32.5914 86.8288 32.5914 86.8288L35.3324 84.5337L35.8706 74.1063L29.7696 74.1216Z" fill="#FFBE9D"/>
<path id="Vector_43" d="M59.5391 44.6796L61.369 42.7249L64.4175 45.1501L71.395 38.4102L73.0673 40.3725L64.283 48.9944L59.5391 44.6796Z" fill="#E8B132"/>
<path id="Vector_44" d="M68.1355 45.2114L65.4829 46.906C65.3637 45.8617 64.5641 44.8289 64.6025 45.353C64.641 45.877 64.6025 48.5967 64.6025 48.5967L59.8778 58.5C59.2358 60.0683 57.9326 61.0552 56.96 61.2885L52.5352 62.5967L54.2613 68.4071L60.4122 66.3798C61.1973 66.121 61.9105 65.6827 62.4947 65.1001C63.0788 64.5176 63.5177 63.8069 63.776 63.0252L68.0048 50.2032C68.2856 49.3774 68.5116 48.534 68.6814 47.6786C68.8659 46.6038 68.1355 45.2114 68.1355 45.2114Z" fill="#FFBE9D"/>
<path id="Vector_45" d="M46.406 153.528L46.3367 150.594L40.8086 150.682L40.8586 154.978L41.2046 154.997C42.7423 155.054 48.974 155.192 49.9889 154.871C51.1191 154.507 46.406 153.528 46.406 153.528Z" fill="#E8B132"/>
<g id="Group_2" opacity="0.5">
<path id="Vector_46" d="M42.8658 154.905C42.7726 154.447 42.5142 154.039 42.1392 153.758C41.77 153.472 41.3059 153.335 40.8398 153.375L40.8629 154.905H42.8658Z" fill="white"/>
</g>
<g id="Group_3" opacity="0.4">
<path id="Vector_47" d="M48.69 154.09C48.69 154.09 50.3431 154.534 50.1431 154.809C49.9432 155.085 43.6308 155.192 40.8398 154.978V154.855L48.2056 154.806C48.2056 154.806 48.3863 154.109 48.69 154.09Z" fill="white"/>
</g>
<path id="Vector_48" d="M40.7811 154.852H40.8772H41.1501L42.1573 154.879C43.0069 154.899 44.1795 154.906 45.475 154.879C46.7705 154.852 47.9469 154.818 48.7927 154.775L49.7999 154.718L50.0728 154.699H50.1651H50.069H49.796L48.7927 154.737C47.9431 154.764 46.7705 154.802 45.475 154.822C44.1795 154.841 43.0069 154.822 42.1573 154.822H41.154H40.7695L40.7811 154.852Z" fill="#263238"/>
<path id="Vector_49" d="M48.2324 154.89C48.2724 154.724 48.3331 154.563 48.4131 154.412C48.5099 154.272 48.622 154.144 48.7475 154.029C48.5839 154.106 48.4473 154.229 48.3554 154.384C48.2635 154.539 48.2206 154.718 48.2324 154.897V154.89Z" fill="#263238"/>
<path id="Vector_50" d="M46.5886 154.091C46.5886 154.091 46.6808 154.007 46.7616 153.88C46.8423 153.754 46.8884 153.639 46.873 153.632C46.8577 153.624 46.7808 153.716 46.7039 153.842C46.627 153.968 46.5732 154.083 46.5886 154.091Z" fill="#263238"/>
<path id="Vector_51" d="M46.1389 153.865C46.1389 153.865 46.235 153.819 46.3311 153.731C46.4272 153.643 46.4887 153.562 46.4772 153.551C46.4656 153.54 46.3772 153.597 46.2849 153.681C46.1927 153.765 46.1235 153.849 46.1389 153.865Z" fill="#263238"/>
<path id="Vector_52" d="M45.8438 153.348C45.9359 153.382 46.0349 153.392 46.1321 153.379C46.2296 153.39 46.3284 153.379 46.4204 153.345C46.3273 153.315 46.2293 153.305 46.1321 153.314C46.0346 153.303 45.9359 153.315 45.8438 153.348Z" fill="#263238"/>
<path id="Vector_53" d="M45.7422 152.985C45.8393 153.044 45.9513 153.075 46.0651 153.073C46.1791 153.09 46.2954 153.072 46.3996 153.023C46.2896 153.013 46.1789 153.013 46.069 153.023C45.9614 153 45.8521 152.988 45.7422 152.985Z" fill="#263238"/>
<path id="Vector_54" d="M46.7734 153.609C46.8904 153.63 47.0102 153.63 47.1271 153.609C47.2578 153.591 47.3865 153.562 47.5116 153.521C47.5863 153.497 47.6584 153.467 47.7268 153.429C47.7485 153.417 47.7675 153.402 47.7828 153.383C47.798 153.363 47.809 153.341 47.8153 153.318C47.8198 153.291 47.8168 153.264 47.8066 153.239C47.7964 153.214 47.7794 153.192 47.7576 153.176C47.6206 153.113 47.466 153.099 47.3197 153.136C47.1734 153.173 47.0443 153.259 46.9541 153.379C46.9024 153.45 46.8646 153.531 46.8426 153.616C46.8359 153.648 46.8359 153.68 46.8426 153.712C46.8794 153.604 46.9326 153.502 47.0003 153.41C47.0795 153.316 47.1833 153.246 47.3001 153.207C47.4399 153.159 47.5931 153.167 47.7268 153.23C47.7807 153.272 47.7614 153.337 47.6999 153.375C47.6362 153.411 47.5693 153.44 47.5 153.463C47.3747 153.506 47.2461 153.54 47.1156 153.563C46.9041 153.597 46.7734 153.597 46.7734 153.609Z" fill="#263238"/>
<path id="Vector_55" d="M46.8629 153.635C46.9061 153.561 46.9198 153.474 46.9013 153.39C46.8868 153.298 46.8513 153.21 46.7975 153.134C46.7671 153.082 46.724 153.039 46.6722 153.008C46.6205 152.977 46.5617 152.96 46.5015 152.958C46.4835 152.962 46.4664 152.969 46.4512 152.979C46.436 152.989 46.4231 153.003 46.413 153.018C46.403 153.033 46.3962 153.05 46.3929 153.068C46.3896 153.086 46.3899 153.105 46.3938 153.123C46.4024 153.179 46.4234 153.232 46.4554 153.279C46.5021 153.358 46.5604 153.429 46.6283 153.49C46.6832 153.553 46.7533 153.602 46.8321 153.631C46.8321 153.631 46.7629 153.57 46.663 153.459C46.6054 153.394 46.5539 153.323 46.5092 153.249C46.4592 153.176 46.4246 153.042 46.5092 153.023C46.5938 153.004 46.6899 153.1 46.7437 153.168C46.7952 153.237 46.8318 153.315 46.8513 153.398C46.8619 153.477 46.8658 153.556 46.8629 153.635Z" fill="#263238"/>
<path id="Vector_56" d="M40.8711 153.344C40.8711 153.344 41.0287 153.344 41.2786 153.344C41.6045 153.375 41.9151 153.497 42.1743 153.696C42.4335 153.895 42.6308 154.163 42.7433 154.469C42.8317 154.702 42.8432 154.851 42.8548 154.851C42.8623 154.815 42.8623 154.777 42.8548 154.74C42.8422 154.64 42.8204 154.542 42.7894 154.446C42.6828 154.126 42.4821 153.846 42.2134 153.641C41.9447 153.437 41.6203 153.317 41.2824 153.298C41.1815 153.287 41.0797 153.287 40.9787 153.298C40.9401 153.306 40.9035 153.322 40.8711 153.344Z" fill="#263238"/>
<path id="Vector_57" d="M41.4078 151.049C41.3735 151.425 41.3632 151.801 41.3771 152.178C41.3648 152.561 41.3764 152.944 41.4117 153.325C41.4467 152.944 41.4569 152.561 41.4424 152.178C41.4517 151.801 41.4402 151.425 41.4078 151.049Z" fill="#263238"/>
<path id="Vector_58" d="M43.5508 154.358C43.8175 154.413 44.0899 154.435 44.3619 154.423C44.6333 154.435 44.9049 154.409 45.1693 154.346C45.1693 154.327 44.7848 154.346 44.3619 154.346C43.9391 154.346 43.5546 154.339 43.5508 154.358Z" fill="#263238"/>
<path id="Vector_59" d="M42.4688 154.37C42.4688 154.37 42.4995 154.446 42.5341 154.53C42.5687 154.615 42.5956 154.683 42.6148 154.683C42.6341 154.683 42.6417 154.595 42.5956 154.5C42.5495 154.404 42.4803 154.358 42.4688 154.37Z" fill="#263238"/>
<path id="Vector_60" d="M42.0508 153.872C42.0508 153.872 42.0738 153.941 42.1354 153.998C42.1969 154.056 42.2507 154.09 42.2622 154.079C42.2738 154.067 42.2392 154.006 42.1815 153.953C42.1238 153.899 42.0662 153.857 42.0508 153.872Z" fill="#263238"/>
<path id="Vector_61" d="M41.4611 153.635C41.4611 153.635 41.5418 153.635 41.6225 153.678C41.7033 153.72 41.7609 153.747 41.7763 153.735C41.7917 153.724 41.7456 153.647 41.6418 153.616C41.538 153.585 41.4572 153.635 41.4611 153.635Z" fill="#263238"/>
<path id="Vector_62" d="M41.0469 153.548C41.0469 153.548 41.0699 153.594 41.1161 153.609C41.1622 153.624 41.2045 153.628 41.2122 153.609C41.2199 153.59 41.1853 153.563 41.1391 153.548C41.093 153.532 41.0507 153.528 41.0469 153.548Z" fill="#263238"/>
<path id="Vector_63" d="M26.8897 152.591L28.7657 150.322L24.5139 146.799L21.7383 150.089L21.9843 150.326C23.103 151.363 27.7508 155.517 28.7273 155.93C29.8229 156.393 26.8897 152.591 26.8897 152.591Z" fill="#E8B132"/>
<g id="Group_4" opacity="0.5">
<path id="Vector_64" d="M23.319 151.34C23.5542 150.931 23.6295 150.451 23.5304 149.99C23.4361 149.535 23.1725 149.132 22.7923 148.861L21.7812 150.036L23.319 151.34Z" fill="white"/>
</g>
<g id="Group_5" opacity="0.4">
<path id="Vector_65" d="M28.2698 154.511C28.2698 154.511 29.2309 155.923 28.9003 155.999C28.5697 156.076 23.7027 152.052 21.7383 150.089L21.8229 150.001L27.4394 154.745C27.4394 154.745 28.0122 154.316 28.2698 154.511Z" fill="white"/>
</g>
<path id="Vector_66" d="M21.7578 149.944L21.8232 150.013L22.0231 150.2L22.7689 150.873C23.3993 151.436 24.2835 152.205 25.2792 153.031C26.2749 153.857 27.2014 154.588 27.8626 155.108L28.6622 155.716L28.8814 155.877L28.9621 155.93L28.8891 155.865L28.6776 155.693L27.9088 155.07C27.2437 154.542 26.3326 153.807 25.3369 152.981C24.3412 152.155 23.4532 151.394 22.815 150.839L22.0461 150.181L21.8385 150.001L21.7578 149.944Z" fill="#263238"/>
<path id="Vector_67" d="M27.3828 154.81C27.5229 154.708 27.6753 154.624 27.8364 154.561C28.0027 154.519 28.1726 154.493 28.3439 154.484C28.1727 154.422 27.9846 154.422 27.8134 154.484C27.635 154.537 27.4821 154.653 27.3828 154.81Z" fill="#263238"/>
<path id="Vector_68" d="M26.6602 153.135C26.6602 153.154 26.787 153.135 26.9293 153.085C27.0715 153.035 27.1868 152.989 27.1791 152.97C27.1715 152.95 27.0523 152.97 26.91 153.02C26.8194 153.04 26.7342 153.079 26.6602 153.135Z" fill="#263238"/>
<path id="Vector_69" d="M26.4688 152.668C26.4688 152.668 26.5725 152.698 26.7033 152.694C26.834 152.691 26.9339 152.671 26.9339 152.652C26.9339 152.633 26.8263 152.621 26.6994 152.625C26.6203 152.621 26.5414 152.636 26.4688 152.668Z" fill="#263238"/>
<path id="Vector_70" d="M26.582 152.105C26.582 152.105 26.6589 152.212 26.7819 152.315C26.8513 152.385 26.9335 152.441 27.0241 152.48C27.0241 152.48 26.9472 152.369 26.8242 152.266C26.7012 152.162 26.5974 152.074 26.582 152.105Z" fill="#263238"/>
<path id="Vector_71" d="M26.7461 151.746C26.788 151.851 26.8518 151.945 26.9333 152.024C27.0148 152.102 27.1122 152.163 27.2189 152.201C27.1445 152.121 27.0649 152.045 26.9806 151.975C26.8537 151.853 26.7807 151.723 26.7461 151.746Z" fill="#263238"/>
<path id="Vector_72" d="M27.1129 152.87C27.1892 152.961 27.2817 153.038 27.3859 153.096C27.4949 153.166 27.6108 153.225 27.7319 153.272C27.8033 153.304 27.8781 153.328 27.9548 153.344C28.0032 153.352 28.0528 153.341 28.0932 153.314C28.1144 153.297 28.1304 153.275 28.1393 153.25C28.1481 153.225 28.1495 153.198 28.1432 153.172C28.0839 153.032 27.9772 152.917 27.8417 152.848C27.7062 152.778 27.5503 152.757 27.4012 152.79C27.3134 152.807 27.2307 152.843 27.159 152.897C27.1321 152.914 27.1086 152.936 27.0898 152.962C27.1883 152.902 27.2962 152.86 27.4089 152.836C27.5309 152.815 27.6564 152.829 27.7703 152.878C27.9073 152.93 28.0178 153.035 28.0778 153.168C28.0778 153.237 28.0356 153.276 27.9625 153.264C27.8916 153.248 27.8222 153.226 27.7549 153.199C27.6365 153.155 27.522 153.102 27.4128 153.038C27.2244 152.966 27.1206 152.87 27.1129 152.87Z" fill="#263238"/>
<path id="Vector_73" d="M27.1635 152.958C27.1635 152.958 27.2634 152.928 27.3557 152.797C27.4052 152.719 27.4367 152.63 27.448 152.537C27.4568 152.478 27.4513 152.417 27.4319 152.36C27.4125 152.302 27.3798 152.251 27.3365 152.208C27.3033 152.191 27.2645 152.187 27.2285 152.198C27.1925 152.208 27.1622 152.233 27.1443 152.266C27.115 152.314 27.0967 152.367 27.0904 152.423C27.0792 152.513 27.0792 152.604 27.0904 152.694C27.0904 152.778 27.1116 152.861 27.152 152.935C27.152 152.935 27.152 152.84 27.152 152.694C27.1509 152.607 27.1586 152.52 27.175 152.434C27.175 152.346 27.2442 152.224 27.325 152.266C27.4057 152.308 27.4095 152.442 27.4095 152.53C27.4027 152.614 27.3778 152.696 27.3365 152.771C27.286 152.839 27.228 152.902 27.1635 152.958Z" fill="#263238"/>
<path id="Vector_74" d="M22.8164 148.861C22.8164 148.861 22.9471 148.949 23.1201 149.129C23.3453 149.366 23.5008 149.66 23.5699 149.978C23.6336 150.298 23.607 150.629 23.493 150.935C23.4046 151.172 23.3085 151.298 23.32 151.317C23.3489 151.292 23.3736 151.262 23.3931 151.229C23.4504 151.147 23.4981 151.058 23.5353 150.965C23.6682 150.654 23.703 150.31 23.6352 149.978C23.5659 149.648 23.3985 149.345 23.1547 149.11C23.0821 149.04 23.0022 148.977 22.9164 148.923C22.8873 148.896 22.8534 148.875 22.8164 148.861Z" fill="#263238"/>
<path id="Vector_75" d="M24.73 147.465C24.4569 147.729 24.2002 148.008 23.9611 148.303C23.7074 148.583 23.4687 148.877 23.2461 149.183C23.5209 148.922 23.7778 148.644 24.015 148.349C24.2683 148.066 24.507 147.772 24.73 147.465Z" fill="#263238"/>
<path id="Vector_76" d="M24.1836 151.367C24.3479 151.582 24.5391 151.775 24.7526 151.941C24.9521 152.125 25.1759 152.282 25.4176 152.408C25.4176 152.408 25.137 152.178 24.7987 151.891C24.4604 151.604 24.199 151.34 24.1836 151.367Z" fill="#263238"/>
<path id="Vector_77" d="M23.3578 150.675C23.3578 150.675 23.3309 150.751 23.3078 150.839C23.2848 150.927 23.2502 150.992 23.2655 151.004C23.2809 151.015 23.3424 150.958 23.3732 150.855C23.4039 150.751 23.377 150.671 23.3578 150.675Z" fill="#263238"/>
<path id="Vector_78" d="M23.3698 150.024C23.3506 150.024 23.3429 150.093 23.3506 150.173C23.3583 150.254 23.3775 150.319 23.3967 150.319C23.416 150.319 23.4236 150.25 23.3967 150.17C23.3698 150.089 23.389 150.024 23.3698 150.024Z" fill="#263238"/>
<path id="Vector_79" d="M23.0664 149.474C23.0664 149.493 23.1164 149.539 23.1587 149.611C23.201 149.684 23.2202 149.757 23.2394 149.757C23.2586 149.757 23.2702 149.669 23.2163 149.577C23.1625 149.485 23.0741 149.458 23.0664 149.474Z" fill="#263238"/>
<path id="Vector_80" d="M22.8164 149.125C22.8164 149.125 22.8164 149.179 22.8164 149.221C22.8164 149.264 22.8741 149.291 22.8894 149.283C22.9048 149.275 22.8894 149.229 22.8894 149.187C22.8894 149.145 22.8318 149.118 22.8164 149.125Z" fill="#263238"/>
<path id="Vector_81" d="M38.3994 91.1284C38.3994 91.1284 36.558 98.8782 37.0808 100.412C37.6036 101.946 40.9751 102.83 40.9751 102.83L40.8598 124.055L22.207 147.006L29.0884 152.606C29.0884 152.606 49.2866 129.621 51.0665 125.448C52.8464 121.274 49.9132 90.7727 49.9132 90.7727L38.3994 91.1284Z" fill="#263238"/>
<path id="Vector_82" d="M47.9239 87.9689L48.835 152.43L39.351 152.488L34.5879 99.976C33.5807 99.0197 32.1621 97.3826 32.3582 93.7296L32.5888 89.4875L47.9239 87.9689Z" fill="#263238"/>
<path id="Vector_83" d="M37.9297 127.644C37.9436 127.61 37.9616 127.577 37.9835 127.548C38.0335 127.479 38.0912 127.391 38.1642 127.284L38.8677 126.293L41.4434 122.744V122.793C41.2358 120.556 40.9859 117.843 40.7168 114.917C40.3708 111.092 40.094 107.611 39.9287 105.09C39.8442 103.832 39.7903 102.814 39.7596 102.111C39.7596 101.774 39.7365 101.502 39.7327 101.296C39.7209 101.202 39.7209 101.107 39.7327 101.013C39.7513 101.106 39.7628 101.201 39.7673 101.296C39.7673 101.499 39.8057 101.77 39.8326 102.107C39.8903 102.83 39.9672 103.84 40.0671 105.083C40.267 107.596 40.5669 111.065 40.9129 114.898C41.1705 117.836 41.4319 120.544 41.6049 122.793V122.82V122.843L38.9715 126.347L38.2295 127.315L38.0296 127.563C37.9489 127.624 37.9297 127.647 37.9297 127.644Z" fill="#455A64"/>
<path id="Vector_84" d="M40.838 101.012C39.9893 100.968 39.1472 100.839 38.3238 100.63C37.4862 100.489 36.6646 100.266 35.8711 99.9644C36.7114 100.072 37.5446 100.229 38.3661 100.435C39.2004 100.58 40.0257 100.773 40.838 101.012Z" fill="#455A64"/>
<path id="Vector_85" d="M47.3304 123.034C46.5117 122.696 45.6502 122.472 44.77 122.369C43.8833 122.333 42.9959 122.419 42.1328 122.625C42.3582 122.483 42.6088 122.386 42.8709 122.338C43.4977 122.175 44.1474 122.118 44.7931 122.17C45.4347 122.221 46.0634 122.377 46.6538 122.633C46.9016 122.725 47.1308 122.861 47.3304 123.034Z" fill="#455A64"/>
<path id="Vector_86" d="M50.6848 126.01C50.7271 126.045 48.0591 129.61 44.7222 133.97C41.3854 138.331 38.6443 141.846 38.6021 141.816C38.5598 141.785 41.2277 138.216 44.5646 133.852C47.9015 129.487 50.6425 125.976 50.6848 126.01Z" fill="#455A64"/>
<path id="Vector_87" d="M49.3956 92.7541C49.2862 93.0334 49.1013 93.277 48.8612 93.458C48.5865 93.6974 48.265 93.8777 47.9169 93.9876C47.5688 94.0975 47.2016 94.1345 46.8384 94.0964C46.4752 94.0584 46.1239 93.946 45.8065 93.7663C45.489 93.5867 45.2123 93.3436 44.9938 93.0525C44.7903 92.8288 44.6568 92.551 44.6094 92.2531C44.7573 92.4978 44.9191 92.7341 45.0938 92.9607C45.5331 93.4906 46.1641 93.8276 46.8508 93.8992C47.5375 93.9707 48.2249 93.7711 48.7651 93.3432C48.9855 93.158 49.1959 92.9613 49.3956 92.7541Z" fill="#455A64"/>
<path id="Vector_88" d="M36.43 59.5862C34.8672 58.1087 33.9458 56.0827 33.8618 53.9394C33.7778 51.7961 34.5378 49.7048 35.9802 48.1107" fill="#263238"/>
<path id="Vector_89" d="M31.0967 65.5994C31.0967 65.5994 29.0361 67.9174 28.6094 76.7803C28.6094 76.7803 34.4797 77.8896 34.5873 77.5721C34.695 77.2546 31.0967 65.5994 31.0967 65.5994Z" fill="#E8B132"/>
<g id="Group_6" opacity="0.3">
<path id="Vector_90" d="M31.1006 65.5994C31.1006 65.5994 29.04 67.9174 28.6133 76.7803C28.6133 76.7803 34.4836 77.8896 34.5912 77.5721C34.6989 77.2546 31.1006 65.5994 31.1006 65.5994Z" fill="#081411"/>
</g>
<path id="Vector_91" d="M32.0545 91.4154H50.0806L49.7884 88.6116C49.7884 88.6116 47.7279 77.9547 47.7433 77.8132L48.0662 77.1361C48.4874 76.257 48.7126 75.2977 48.7266 74.3239C48.7405 73.3501 48.5428 72.3847 48.1469 71.494L56.9889 68.4913L54.8284 61.2465C50.8226 61.9159 44.7677 62.6694 44.7677 62.6694L43.8682 62.7421C43.8682 62.7421 37.6173 63.0672 37.4827 63.0825C34.8686 63.4 31.8277 63.5989 30.7167 66.3836C30.1208 67.8716 30.6859 70.1055 31.6585 72.4082L33.9651 79.4848C34.8878 83.375 33.4154 83.1875 32.6043 87.1045C32.4735 87.6936 32.043 90.8723 32.0545 91.4154Z" fill="#E8B132"/>
<g id="Group_7" opacity="0.3">
<path id="Vector_92" d="M32.0545 91.4154H50.0806L49.7884 88.6116C49.7884 88.6116 47.7279 77.9547 47.7433 77.8132L48.0662 77.1361C48.4874 76.257 48.7126 75.2977 48.7266 74.3239C48.7405 73.3501 48.5428 72.3847 48.1469 71.494L56.9889 68.4913L54.8284 61.2465C50.8226 61.9159 44.7677 62.6694 44.7677 62.6694L43.8682 62.7421C43.8682 62.7421 37.6173 63.0672 37.4827 63.0825C34.8686 63.4 31.8277 63.5989 30.7167 66.3836C30.1208 67.8716 30.6859 70.1055 31.6585 72.4082L33.9651 79.4848C34.8878 83.375 33.4154 83.1875 32.6043 87.1045C32.4735 87.6936 32.043 90.8723 32.0545 91.4154Z" fill="#081411"/>
</g>
<path id="Vector_93" d="M56.8879 68.6099C56.766 68.6782 56.6371 68.7333 56.5035 68.7744C56.2497 68.8662 55.8768 68.9924 55.4155 69.1569C54.4929 69.4668 53.2089 69.8761 51.7941 70.3274C50.3794 70.7788 49.1031 71.2263 48.2189 71.5935C47.7653 71.7772 47.4078 71.9378 47.1579 72.0449C47.0367 72.1117 46.9075 72.1631 46.7734 72.1979C46.8851 72.1096 47.0063 72.0339 47.1348 71.9722C47.377 71.846 47.7268 71.6624 48.1728 71.4635C49.3382 70.9581 50.5304 70.5163 51.7442 70.14C53.1627 69.6886 54.4352 69.2985 55.3848 69.023C55.8499 68.8853 56.2305 68.7782 56.4919 68.7056C56.6194 68.6574 56.7524 68.6253 56.8879 68.6099Z" fill="#263238"/>
<path id="Vector_94" d="M55.8427 64.7507C55.8427 64.8045 50.5106 64.8507 43.9253 64.8507C37.3399 64.8507 32.0078 64.8045 32.0078 64.7507C32.0078 64.6969 37.3361 64.6508 43.9253 64.6508C50.5145 64.6508 55.8427 64.6969 55.8427 64.7507Z" fill="#FAFAFA"/>
<path id="Vector_95" d="M56.382 68.2736C56.382 68.3274 50.4502 68.3736 43.1344 68.3736C35.8186 68.3736 29.8906 68.3274 29.8906 68.2736C29.8906 68.2198 35.8186 68.1736 43.1344 68.1736C50.4502 68.1736 56.382 68.2198 56.382 68.2736Z" fill="#FAFAFA"/>
<path id="Vector_96" d="M31.3941 72.2819C31.0337 72.3791 30.659 72.4128 30.2869 72.3813C29.9161 72.4127 29.5427 72.379 29.1836 72.2819C29.5427 72.1847 29.9161 72.151 30.2869 72.1824C30.659 72.1509 31.0337 72.1846 31.3941 72.2819Z" fill="#FAFAFA"/>
<path id="Vector_97" d="M48.6937 72.4048C48.6937 72.4586 44.8147 72.5047 40.0324 72.5047C35.25 72.5047 31.3711 72.4586 31.3711 72.4048C31.3711 72.3509 35.2462 72.3048 40.0324 72.3048C44.8186 72.3048 48.6937 72.3471 48.6937 72.4048Z" fill="#FAFAFA"/>
<path id="Vector_98" d="M48.3082 76.532C48.3082 76.5896 44.8252 76.6319 40.5349 76.6319C36.2446 76.6319 32.7578 76.5896 32.7578 76.532C32.7578 76.4743 36.2369 76.432 40.5349 76.432C44.8329 76.432 48.3082 76.4781 48.3082 76.532Z" fill="#FAFAFA"/>
<path id="Vector_99" d="M48.2027 80.3612C48.2027 80.415 45.0504 80.4611 41.1599 80.4611C37.2694 80.4611 34.1094 80.415 34.1094 80.3612C34.1094 80.3074 37.2656 80.2612 41.1599 80.2612C45.0542 80.2612 48.2027 80.3035 48.2027 80.3612Z" fill="#FAFAFA"/>
<path id="Vector_100" d="M48.8197 83.4557C48.8197 83.5134 45.4444 83.5557 41.2809 83.5557C37.1175 83.5557 33.7422 83.5134 33.7422 83.4557C33.7422 83.3981 37.1175 83.3558 41.2809 83.3558C45.4444 83.3558 48.8197 83.4019 48.8197 83.4557Z" fill="#FAFAFA"/>
<path id="Vector_101" d="M49.798 87.4032C49.798 87.4609 45.9536 87.5032 41.2213 87.5032C36.4889 87.5032 32.6445 87.4609 32.6445 87.4032C32.6445 87.3456 36.4889 87.3033 41.2213 87.3033C45.9536 87.3033 49.798 87.3494 49.798 87.4032Z" fill="#FAFAFA"/>
<path id="Vector_102" d="M33.8431 79.152C33.7705 79.0442 33.716 78.9253 33.6816 78.8001L33.2972 77.8209C32.9781 76.9947 32.5283 75.8548 32.067 74.581C31.6057 73.3072 31.2174 72.1444 30.9752 71.2914C30.856 70.8629 30.7638 70.5263 30.7138 70.2739C30.6768 70.1494 30.6549 70.021 30.6484 69.8914C30.8263 70.3355 30.9803 70.7888 31.1098 71.2493C31.3866 72.0908 31.7902 73.246 32.2631 74.516C32.7359 75.7859 33.1511 76.9335 33.4164 77.775C33.5586 78.1958 33.6662 78.54 33.7354 78.7772C33.7872 78.8971 33.8234 79.023 33.8431 79.152Z" fill="#263238"/>
</g>
</g>
</svg>
