<svg width="86" height="156" viewBox="0 0 86 156" fill="none" xmlns="http://www.w3.org/2000/svg">
<g id="personal-site/rafiki">
<g id="Device">
<path id="Vector" d="M81.2612 0H4.7388C2.12163 0 0 2.13973 0 4.77922V151.221C0 153.86 2.12163 156 4.7388 156H81.2612C83.8784 156 86 153.86 86 151.221V4.77922C86 2.13973 83.8784 0 81.2612 0Z" fill="#263238"/>
<path id="Vector_2" d="M83.128 5.22497V150.495C83.1281 150.776 83.0726 151.055 82.9648 151.315C82.857 151.574 82.6991 151.81 82.5002 152.007C82.3013 152.205 82.0655 152.361 81.8064 152.466C81.5473 152.57 81.2701 152.622 80.991 152.618H4.84225C4.58873 152.621 4.33718 152.573 4.10263 152.475C3.86808 152.378 3.65534 152.235 3.47713 152.053C3.29892 151.871 3.15889 151.655 3.06541 151.417C2.97193 151.179 2.92692 150.925 2.93306 150.669V5.05035C2.92391 4.82483 2.95901 4.59972 3.03634 4.38792C3.11368 4.17613 3.23174 3.98182 3.38372 3.81615C3.53571 3.65049 3.71864 3.51672 3.92202 3.42254C4.12539 3.32836 4.34521 3.27562 4.56886 3.26733H23.606C23.8724 3.27213 24.1312 3.35688 24.3495 3.51076C24.5679 3.66465 24.7358 3.88068 24.8318 4.13127L25.62 6.08891C25.7175 6.33777 25.886 6.55186 26.1042 6.70403C26.3224 6.8562 26.5805 6.9396 26.8457 6.94365H59.2563C59.5212 6.94345 59.78 6.86324 59.9993 6.71335C60.2186 6.56346 60.3883 6.35077 60.4866 6.10269L61.2749 4.13586C61.3732 3.88649 61.5416 3.67147 61.7593 3.51719C61.977 3.36291 62.2347 3.27608 62.5006 3.26733H81.2644C81.7672 3.28294 82.2439 3.49664 82.5923 3.86261C82.9407 4.22858 83.133 4.71766 83.128 5.22497Z" fill="#E8B132"/>
<path id="Vector_3" opacity="0.3" d="M83.1266 12.3435H2.93164V142.968H83.1266V12.3435Z" fill="white"/>
<path id="Vector_4" d="M25.7838 57.6446C35.812 57.6446 43.9415 49.4458 43.9415 39.3319C43.9415 29.2181 35.812 21.0193 25.7838 21.0193C15.7555 21.0193 7.62598 29.2181 7.62598 39.3319C7.62598 49.4458 15.7555 57.6446 25.7838 57.6446Z" fill="white"/>
<path id="Vector_5" opacity="0.6" d="M41.214 4.57232C41.823 4.57232 42.3167 4.07442 42.3167 3.46023C42.3167 2.84604 41.823 2.34814 41.214 2.34814C40.605 2.34814 40.1113 2.84604 40.1113 3.46023C40.1113 4.07442 40.605 4.57232 41.214 4.57232Z" fill="white"/>
<path id="Vector_6" opacity="0.6" d="M44.5365 3.46035C44.5365 3.60123 44.4951 3.73894 44.4175 3.85608C44.3399 3.97321 44.2296 4.06451 44.1006 4.11842C43.9715 4.17233 43.8295 4.18643 43.6925 4.15895C43.5555 4.13147 43.4297 4.06363 43.3309 3.96401C43.2321 3.8644 43.1648 3.73748 43.1376 3.59931C43.1103 3.46114 43.1243 3.31792 43.1778 3.18777C43.2312 3.05761 43.3218 2.94637 43.4379 2.8681C43.5541 2.78984 43.6906 2.74806 43.8303 2.74806C43.9232 2.74745 44.0153 2.76546 44.1013 2.80104C44.1872 2.83662 44.2653 2.88906 44.331 2.95533C44.3967 3.02159 44.4487 3.10036 44.484 3.18705C44.5193 3.27374 44.5372 3.36664 44.5365 3.46035Z" fill="white"/>
<path id="Vector_7" opacity="0.6" d="M11.979 9.12207H12.9678V7.7894H11.979V9.12207Z" fill="white"/>
<path id="Vector_8" opacity="0.6" d="M10.3599 9.12207H11.3486V7.34825H10.3599V9.12207Z" fill="white"/>
<path id="Vector_9" opacity="0.6" d="M8.74463 9.12207H9.7334V6.90249H8.74463V9.12207Z" fill="white"/>
<path id="Vector_10" opacity="0.6" d="M7.13721 9.12207H8.12598V6.45674H7.13721V9.12207Z" fill="white"/>
<path id="Vector_11" opacity="0.6" d="M74.2606 7.302H73.6729V8.63467H74.2606V7.302Z" fill="white"/>
<path id="Vector_12" opacity="0.6" d="M74.6593 9.12207H79.3389V6.81977H74.6593V9.12207Z" fill="white"/>
<g id="group">
<path id="Vector_13" d="M28.1262 36.2028C24.3625 36.2487 18.7261 36.5474 14.042 37.7376C14.042 37.7376 14.73 41.2209 15.4773 45.9588C15.7553 47.7234 16.0423 49.6351 16.3066 51.6525C16.343 51.9512 16.3841 52.2499 16.4205 52.5716L16.4752 53.0311C16.5481 53.6331 16.621 54.2397 16.6893 54.8417C16.6893 54.975 16.7212 55.1082 16.7349 55.2415C19.3746 56.7676 22.3522 57.6006 25.3942 57.664C28.4363 57.7275 31.4454 57.0193 34.1454 55.6045C34.109 49.4835 33.7353 41.7126 32.3 36.3039C32.3046 36.2533 30.6323 36.1752 28.1262 36.2028Z" fill="#E8B132"/>
<path id="Vector_14" opacity="0.6" d="M28.1262 36.2028C24.3625 36.2487 18.7261 36.5474 14.042 37.7376C14.042 37.7376 14.73 41.2209 15.4773 45.9588C15.7553 47.7234 16.0423 49.6351 16.3066 51.6525C16.343 51.9512 16.3841 52.2499 16.4205 52.5716L16.4752 53.0311C16.5481 53.6331 16.621 54.2397 16.6893 54.8417C16.6893 54.975 16.7212 55.1082 16.7349 55.2415C19.3746 56.7676 22.3522 57.6006 25.3942 57.664C28.4363 57.7275 31.4454 57.0193 34.1454 55.6045C34.109 49.4835 33.7353 41.7126 32.3 36.3039C32.3046 36.2533 30.6323 36.1752 28.1262 36.2028Z" fill="white"/>
<path id="Vector_15" d="M20.1689 36.9519C21.6726 38.3305 25.3497 37.8204 25.3497 37.8204C25.3497 37.8204 27.628 37.1862 27.1723 36.4418C25.8054 36.2166 25.1629 35.5778 24.8941 34.7645C24.7484 34.2591 24.702 33.7299 24.7574 33.2066C24.7574 32.9171 24.8212 32.623 24.8713 32.3335L20.3148 28.9375C20.9117 31.1984 21.6407 35.3251 20.1689 36.9519Z" fill="#EBB376"/>
<path id="Vector_16" opacity="0.2" d="M21.3623 31.1157C21.5446 33.873 23.7864 34.6266 24.8845 34.792C24.7389 34.2867 24.6924 33.7575 24.7478 33.2342L21.3623 31.1157Z" fill="#081411"/>
<path id="Vector_17" d="M27.0186 21.8835C27.0186 21.8835 28.5769 25.9229 26.7315 28.0276C24.8861 30.1323 23.1592 22.3477 23.1592 22.3477L27.0186 21.8835Z" fill="#263238"/>
<path id="Vector_18" d="M21.0743 32.793C21.6897 33.3767 22.4776 33.7411 23.3176 33.8308C24.1577 33.9204 25.0037 33.7302 25.7265 33.2893C26.6693 32.7345 27.368 31.8394 27.6813 30.7848C27.7268 30.6378 27.7587 30.4907 27.7906 30.3253C28.3055 27.5221 27.6585 22.9727 24.6011 21.9019C23.928 21.6617 23.2051 21.5991 22.5013 21.7203C21.7975 21.8415 21.1362 22.1424 20.5803 22.5943C20.0244 23.0463 19.5924 23.6342 19.3256 24.3021C19.0587 24.97 18.9658 25.6957 19.0558 26.41C19.3975 29.4843 19.4704 31.3041 21.0743 32.793Z" fill="#EBB376"/>
<path id="Vector_19" d="M23.7413 27.044C23.7413 27.2967 23.8917 27.5035 24.0557 27.5035C24.2197 27.5035 24.3382 27.2875 24.3291 27.044C24.32 26.8004 24.1742 26.5844 24.0101 26.6074C23.8461 26.6304 23.7276 26.7912 23.7413 27.044Z" fill="#263238"/>
<path id="Vector_20" d="M26.5499 26.9018C26.5499 27.15 26.7048 27.3614 26.8689 27.3614C27.0329 27.3614 27.1514 27.1408 27.1377 26.9018C27.124 26.6629 26.9828 26.4423 26.8187 26.4653C26.6547 26.4883 26.5362 26.6629 26.5499 26.9018Z" fill="#263238"/>
<path id="Vector_21" d="M25.6572 27.0718C25.9928 27.8228 26.4298 28.5234 26.9558 29.1535C26.7912 29.2857 26.5997 29.3797 26.3949 29.429C26.1902 29.4782 25.9772 29.4814 25.7711 29.4384L25.6572 27.0718Z" fill="#D58745"/>
<path id="Vector_22" d="M22.8215 26.1754C22.8489 26.1771 22.8763 26.1717 22.9011 26.1596C22.9258 26.1475 22.9471 26.1292 22.9627 26.1064C23.0623 25.9511 23.1966 25.8215 23.3549 25.7281C23.5132 25.6348 23.691 25.5802 23.874 25.5688C23.8932 25.5688 23.9121 25.565 23.9298 25.5576C23.9475 25.5502 23.9636 25.5394 23.9771 25.5257C23.9907 25.512 24.0014 25.4958 24.0087 25.478C24.0161 25.4601 24.0198 25.441 24.0198 25.4217C24.0198 25.4024 24.0161 25.3833 24.0087 25.3654C24.0014 25.3476 23.9907 25.3314 23.9771 25.3177C23.9636 25.3041 23.9475 25.2932 23.9298 25.2858C23.9121 25.2785 23.8932 25.2747 23.874 25.2747C23.6433 25.2857 23.4184 25.3518 23.218 25.4677C23.0176 25.5835 22.8473 25.7458 22.7212 25.941C22.6992 25.973 22.6902 26.0123 22.6961 26.0508C22.7021 26.0893 22.7225 26.124 22.7531 26.1478C22.7745 26.1601 22.7975 26.1694 22.8215 26.1754Z" fill="#263238"/>
<path id="Vector_23" d="M27.7053 25.863C27.7335 25.8721 27.7638 25.8721 27.7919 25.863C27.8255 25.8445 27.8506 25.8134 27.8617 25.7764C27.8728 25.7394 27.869 25.6995 27.8511 25.6654C27.7439 25.4574 27.5885 25.2787 27.3981 25.1443C27.2077 25.0099 26.988 24.9238 26.7576 24.8933C26.7385 24.8907 26.7192 24.8922 26.7007 24.8977C26.6823 24.9032 26.6652 24.9125 26.6506 24.9251C26.636 24.9376 26.6242 24.9532 26.6159 24.9707C26.6076 24.9882 26.6031 25.0072 26.6026 25.0266C26.6012 25.0646 26.614 25.1018 26.6385 25.1307C26.663 25.1596 26.6973 25.1783 26.7348 25.1828C26.916 25.2123 27.0879 25.2842 27.2367 25.3927C27.3855 25.5013 27.5069 25.6434 27.5914 25.8078C27.6046 25.8256 27.6218 25.8399 27.6417 25.8495C27.6615 25.8591 27.6833 25.8637 27.7053 25.863Z" fill="#263238"/>
<path id="Vector_24" d="M21.1126 22.4714L21.4087 23.8041C21.1927 23.9356 21.0337 24.1444 20.9636 24.3889C20.8935 24.6333 20.9174 24.8955 21.0305 25.123C21.5728 26.2167 21.108 28.0457 20.3106 28.8315C20.3106 28.8315 20.2377 28.3444 19.8549 28.5006C19.4722 28.6568 19.8185 31.2119 20.7435 32.3561C19.5949 31.3166 18.733 29.9945 18.2419 28.519C17.3625 26.0926 17.3306 24.2544 17.7179 23.2389L21.1126 22.4714Z" fill="#263238"/>
<path id="Vector_25" d="M17.8618 29.0156C18.2376 29.688 18.8616 30.1835 19.5978 30.3942C20.5775 30.67 21.0696 29.7876 20.8008 28.8502C20.5547 28.023 19.7482 26.8512 18.7594 27.012C18.5452 27.0447 18.3424 27.131 18.1697 27.263C17.9969 27.395 17.8597 27.5685 17.7705 27.7677C17.6812 27.9668 17.6428 28.1854 17.6588 28.4034C17.6748 28.6213 17.7445 28.8318 17.8618 29.0156Z" fill="#EBB376"/>
<path id="Vector_26" d="M21.4077 23.7952C21.4077 23.7952 24.7066 24.9763 26.5839 23.2208C28.4612 21.4654 26.2923 19.085 26.2923 19.085C25.8376 19.5583 25.2298 19.8518 24.579 19.9121C23.5265 19.9857 21.0978 19.3469 19.1431 20.3717C17.1883 21.3964 16.4547 24.218 18.2318 25.5047L21.4077 23.7952Z" fill="#263238"/>
<path id="Vector_27" d="M24.0273 29.8701C24.1978 30.1336 24.449 30.3337 24.7427 30.4399C25.0363 30.5461 25.3564 30.5525 25.654 30.4583" stroke="#263238" stroke-width="0.00359016" stroke-linecap="round" stroke-linejoin="round"/>
<path id="Vector_28" d="M26.85 37.5812L26.3944 39.7641C26.3944 39.7641 28.9141 50.3656 29.4563 55.8479L28.545 56.767L27.1006 55.8479C27.1006 55.8479 26.973 44.649 25.6972 39.9433L23.4189 38.0546L25.2416 37.4709L26.85 37.5812Z" fill="#E8B132"/>
<path id="Vector_29" d="M20.683 34.8748L25.0527 36.86L25.3079 35.27L26.9163 35.8398C27.1934 35.9387 27.4299 36.128 27.5883 36.3777C27.7468 36.6274 27.8182 36.9232 27.7912 37.2184L27.6089 38.9693L25.3944 37.7561L24.2872 39.3323L19.0381 36.7818L20.683 34.8748Z" fill="#E8B132"/>
<path id="Vector_30" opacity="0.7" d="M20.683 34.8748L25.0527 36.86L25.3079 35.27L26.9163 35.8398C27.1934 35.9387 27.4299 36.128 27.5883 36.3777C27.7468 36.6274 27.8182 36.9232 27.7912 37.2184L27.6089 38.9693L25.3944 37.7561L24.2872 39.3323L19.0381 36.7818L20.683 34.8748Z" fill="white"/>
<path id="Vector_31" d="M32.3137 36.2533L27.2149 36.0051C28.0943 40.141 27.9257 50.6782 27.9257 50.6782C23.2644 39.8928 19.1408 36.5106 19.1408 36.5106L14.042 37.7422C14.2607 40.573 15.3634 48.9963 16.1562 54.8692C18.9125 56.6066 22.0807 57.5658 25.33 57.6467C28.5793 57.7275 31.7906 56.927 34.6284 55.3288C35.0294 42.3422 32.3137 36.2533 32.3137 36.2533Z" fill="#263238"/>
<path id="Vector_32" opacity="0.1" d="M34.6714 50.908C34.4253 40.959 32.3156 36.2671 32.3156 36.2671L27.2169 36.0051C27.9687 39.5528 27.9505 47.8245 27.9323 50.0946C27.9323 50.4668 27.9323 50.6736 27.9323 50.6736L27.668 50.0625C23.1115 39.7642 19.1518 36.506 19.1518 36.506L18.801 36.5933L14.0576 37.7422C14.1806 39.346 14.5862 42.742 15.0555 46.4734C15.2104 47.6545 15.3653 48.863 15.5112 50.0579C15.657 51.2527 15.8119 52.305 15.9668 53.3665C16.0352 53.8904 16.1035 54.3959 16.1718 54.8876C18.9293 56.6263 22.0991 57.5862 25.3502 57.667C28.6012 57.7479 31.8141 56.9467 34.6532 55.3472C34.6532 55.1312 34.6531 54.8876 34.6759 54.69C34.7002 53.339 34.6987 52.0783 34.6714 50.908Z" fill="white"/>
<path id="Vector_33" opacity="0.2" d="M29.8161 40.8257L30.9962 42.9212C30.9962 42.9212 29.7705 50.9907 27.8066 53.7985V52.1304L20.179 43.2613L21.546 41.129L18.1058 41.8091C18.1058 41.8091 17.7868 38.5923 18.8075 36.5933L19.1583 36.5106C19.1583 36.5106 23.282 39.8974 27.9388 50.6782C27.9388 50.6782 28.1119 40.1364 27.2325 36.0051C27.2325 36.0051 29.6611 37.3332 31.3926 40.8257H29.8161Z" fill="white"/>
<path id="Vector_34" opacity="0.2" d="M34.6765 54.6532C34.6978 53.3236 34.6978 52.0706 34.6765 50.8942L27.9511 50.0946L27.6777 50.0624L23.4219 49.5569L17.7809 42.6362L15.5254 50.0348C15.6803 51.1653 15.8261 52.282 15.981 53.3435C16.0494 53.8674 16.1177 54.3729 16.1861 54.8646C18.1926 56.1313 20.4268 56.987 22.7612 57.3829C25.0794 56.2531 27.3283 54.984 29.4957 53.5825C31.6464 54.1247 33.387 54.4556 34.6765 54.6532Z" fill="#081411"/>
<path id="Vector_35" d="M32.3186 36.2581C32.9137 38.1504 33.3991 40.076 33.7721 42.0253C34.1003 43.7314 34.3376 45.4541 34.4829 47.1859L24.1578 50.6784L23.7021 52.659C23.7021 52.659 32.9929 53.7941 38.0643 52.8245C39.226 51.745 40.2445 50.5186 41.0944 49.1757C39.9781 44.5849 34.3098 36.7268 32.3186 36.2581Z" fill="#263238"/>
<path id="Vector_36" opacity="0.1" d="M32.3172 36.2532C32.868 37.9868 33.3243 39.7494 33.6842 41.5333C33.7207 41.6987 33.7526 41.8596 33.7845 42.025C34.11 43.7316 34.3473 45.4541 34.4953 47.1856L27.7653 49.4604L24.1656 50.6735L23.71 52.6542C23.71 52.6542 25.1316 52.8334 27.1684 52.985C28.4077 53.0815 29.8704 53.1642 31.3832 53.201C33.618 53.2968 35.8568 53.1722 38.0676 52.8288C39.2307 51.7494 40.2507 50.523 41.1022 49.18C39.9768 44.5846 34.3085 36.7265 32.3172 36.2532Z" fill="white"/>
<path id="Vector_37" opacity="0.2" d="M37.4622 47.1534C35.7094 49.4369 33.6604 51.4725 31.3701 53.2055C29.8573 53.1688 28.3947 53.0861 27.1553 52.9896C26.9291 52.2455 26.8214 51.47 26.8363 50.6919L27.7476 49.4787L34.4776 47.204C34.3296 45.4725 34.0924 43.7499 33.7668 42.0433C33.7349 41.8779 33.703 41.717 33.6666 41.5516L33.703 41.5103C33.703 41.5103 36.7103 43.8125 37.4622 47.1534Z" fill="#081411"/>
<path id="Vector_38" d="M25.1772 49.58C25.1772 49.58 23.1222 47.9119 22.3202 47.6592C21.5183 47.4064 19.96 48.6196 19.96 48.6196L21.9648 51.5055L25.1772 49.58Z" fill="#EBB376"/>
<path id="Vector_39" d="M34.4076 49.2263L37.4651 47.1538C37.4651 47.1538 35.1595 45.4857 34.8587 45.4351C34.558 45.3846 33.0361 47.1538 33.0361 47.1538L34.4076 49.2263Z" fill="#EBB376"/>
<path id="Vector_40" d="M14.0633 37.7421C11.0879 39.2127 15.3437 53.4538 19.0345 56.3489C22.7253 59.244 35.2466 49.2031 35.2466 49.2031L33.3557 46.5285C33.3557 46.5285 23.5728 49.9889 22.2879 49.6488C21.0029 49.3088 17.5491 41.9239 16.4236 40.2145C15.6832 39.1317 14.735 38.2098 13.635 37.5032" fill="#263238"/>
<path id="Vector_41" opacity="0.1" d="M14.0633 37.7421C11.0879 39.2127 15.3437 53.4538 19.0345 56.3489C22.7253 59.244 35.2466 49.2031 35.2466 49.2031L33.3557 46.5285C33.3557 46.5285 23.5728 49.9889 22.2879 49.6488C21.0029 49.3088 17.5491 41.9239 16.4236 40.2145C15.6832 39.1317 14.735 38.2098 13.635 37.5032" fill="white"/>
</g>
<path id="Vector_42" d="M68.6534 30.8258H51.7441C51.1656 30.8246 50.6112 30.5923 50.2021 30.1797C49.7931 29.7672 49.5627 29.208 49.5615 28.6246C49.5627 28.0416 49.7932 27.4829 50.2024 27.0711C50.6116 26.6593 51.166 26.428 51.7441 26.428H68.6534C69.231 26.428 69.785 26.6594 70.1935 27.0714C70.6019 27.4833 70.8314 28.042 70.8314 28.6246C70.8314 29.2076 70.6021 29.7668 70.1938 30.1794C69.7854 30.5921 69.2315 30.8246 68.6534 30.8258Z" fill="#E8B132"/>
<path id="Vector_43" d="M76.3604 36.0281H50.3882C50.1658 36.0281 49.9526 35.939 49.7954 35.7804C49.6381 35.6218 49.5498 35.4068 49.5498 35.1825C49.5498 35.0717 49.5715 34.962 49.6137 34.8596C49.6559 34.7573 49.7177 34.6644 49.7956 34.5862C49.8736 34.5081 49.966 34.4463 50.0677 34.4043C50.1694 34.3623 50.2783 34.341 50.3882 34.3416H76.3604C76.4703 34.341 76.5793 34.3623 76.6809 34.4043C76.7826 34.4463 76.8751 34.5081 76.953 34.5862C77.0309 34.6644 77.0927 34.7573 77.1349 34.8596C77.1771 34.962 77.1988 35.0717 77.1988 35.1825C77.1988 35.4068 77.1105 35.6218 76.9533 35.7804C76.7961 35.939 76.5828 36.0281 76.3604 36.0281Z" fill="#E8B132"/>
<path id="Vector_44" d="M65.3454 39.9526H50.3999C50.29 39.9532 50.1811 39.9319 50.0794 39.8899C49.9777 39.8479 49.8853 39.7861 49.8074 39.7079C49.7294 39.6298 49.6676 39.5369 49.6254 39.4345C49.5832 39.3322 49.5615 39.2225 49.5615 39.1117C49.5615 38.8874 49.6499 38.6723 49.8071 38.5138C49.9643 38.3552 50.1776 38.2661 50.3999 38.2661H65.3454C65.4552 38.2661 65.564 38.288 65.6655 38.3306C65.767 38.3731 65.8591 38.4355 65.9366 38.514C66.0141 38.5926 66.0754 38.6859 66.117 38.7884C66.1587 38.891 66.1798 39.0008 66.1792 39.1117C66.1792 39.2221 66.1576 39.3315 66.1157 39.4335C66.0738 39.5355 66.0124 39.6282 65.935 39.7063C65.8575 39.7844 65.7656 39.8463 65.6644 39.8886C65.5633 39.9309 65.4549 39.9526 65.3454 39.9526Z" fill="#E8B132"/>
<path id="Vector_45" opacity="0.2" d="M58.1662 50.292H51.5957C51.3277 50.2938 51.0619 50.2421 50.8138 50.1399C50.5657 50.0377 50.34 49.8871 50.1499 49.6966C49.9597 49.5061 49.8088 49.2795 49.7058 49.0299C49.6028 48.7804 49.5498 48.5127 49.5498 48.2424C49.5498 47.6988 49.7639 47.1775 50.145 46.7932C50.5261 46.4088 51.043 46.1929 51.582 46.1929H58.1525C58.4196 46.1923 58.6841 46.2449 58.9309 46.3477C59.1778 46.4504 59.402 46.6014 59.5909 46.7918C59.7797 46.9823 59.9294 47.2084 60.0313 47.4574C60.1332 47.7063 60.1854 47.9731 60.1847 48.2424C60.1848 48.7836 59.9725 49.3028 59.5944 49.6868C59.2162 50.0708 58.7028 50.2883 58.1662 50.292Z" fill="#081411"/>
<path id="Vector_46" d="M34.7242 63.1821H5.04297V138.193H34.7242V63.1821Z" fill="#E8B132"/>
<g id="Group" opacity="0.3">
<path id="Vector_47" d="M26.9232 82.9978H10.064C9.95389 82.9978 9.84487 82.9759 9.74315 82.9334C9.64143 82.8909 9.549 82.8287 9.47115 82.7501C9.3933 82.6716 9.33154 82.5784 9.2894 82.4758C9.24727 82.3732 9.22559 82.2633 9.22559 82.1523C9.22558 82.0414 9.24731 81.9317 9.2895 81.8294C9.33168 81.727 9.39351 81.6341 9.47143 81.556C9.54934 81.4778 9.6418 81.416 9.74349 81.374C9.84519 81.332 9.95411 81.3107 10.064 81.3113H26.9232C27.033 81.3107 27.142 81.332 27.2437 81.374C27.3453 81.416 27.4378 81.4778 27.5157 81.556C27.5936 81.6341 27.6555 81.727 27.6977 81.8294C27.7398 81.9317 27.7616 82.0414 27.7616 82.1523C27.7616 82.3765 27.6732 82.5916 27.516 82.7501C27.3588 82.9087 27.1455 82.9978 26.9232 82.9978Z" fill="white"/>
<path id="Vector_48" d="M20.4685 86.9221H10.0796C9.85726 86.9221 9.644 86.833 9.48677 86.6745C9.32954 86.5159 9.24121 86.3008 9.24121 86.0766C9.24121 85.9657 9.26293 85.856 9.30512 85.7537C9.34731 85.6513 9.40914 85.5584 9.48705 85.4803C9.56497 85.4021 9.65743 85.3403 9.75912 85.2983C9.86081 85.2563 9.96973 85.235 10.0796 85.2356H20.4685C20.6901 85.2356 20.9026 85.3241 21.0597 85.4816C21.2168 85.6392 21.3057 85.8531 21.3069 86.0766C21.3069 86.3008 21.2186 86.5159 21.0614 86.6745C20.9041 86.833 20.6909 86.9221 20.4685 86.9221Z" fill="white"/>
</g>
<g id="Group_2" opacity="0.3">
<path id="Vector_49" d="M22.3666 94.7383H10.064C9.84164 94.7383 9.62838 94.6492 9.47115 94.4906C9.31392 94.3321 9.22559 94.117 9.22559 93.8927C9.22558 93.7819 9.24731 93.6722 9.2895 93.5698C9.33168 93.4675 9.39351 93.3746 9.47143 93.2964C9.54934 93.2183 9.6418 93.1564 9.74349 93.1145C9.84519 93.0725 9.95411 93.0512 10.064 93.0518H22.3666C22.4765 93.0512 22.5854 93.0725 22.6871 93.1145C22.7888 93.1564 22.8813 93.2183 22.9592 93.2964C23.0371 93.3746 23.0989 93.4675 23.1411 93.5698C23.1833 93.6722 23.205 93.7819 23.205 93.8927C23.205 94.117 23.1167 94.3321 22.9595 94.4906C22.8022 94.6492 22.589 94.7383 22.3666 94.7383Z" fill="white"/>
<path id="Vector_50" d="M25.025 98.6626H10.0796C9.96973 98.6632 9.86081 98.6419 9.75912 98.5999C9.65743 98.5579 9.56497 98.4961 9.48705 98.4179C9.40914 98.3397 9.34731 98.2468 9.30512 98.1445C9.26293 98.0422 9.24121 97.9324 9.24121 97.8216C9.24121 97.5974 9.32954 97.3823 9.48677 97.2237C9.644 97.0652 9.85726 96.9761 10.0796 96.9761H25.025C25.2474 96.9761 25.4607 97.0652 25.6179 97.2237C25.7751 97.3823 25.8634 97.5974 25.8634 97.8216C25.8622 98.0451 25.7734 98.259 25.6163 98.4166C25.4592 98.5741 25.2466 98.6626 25.025 98.6626Z" fill="white"/>
</g>
<g id="Group_3" opacity="0.3">
<path id="Vector_51" d="M26.9232 106.48H10.064C9.95411 106.481 9.84519 106.459 9.74349 106.417C9.6418 106.375 9.54934 106.313 9.47143 106.235C9.39351 106.157 9.33168 106.064 9.2895 105.962C9.24731 105.86 9.22558 105.75 9.22559 105.639C9.22559 105.415 9.31392 105.2 9.47115 105.041C9.62838 104.883 9.84164 104.793 10.064 104.793H26.9232C27.1455 104.793 27.3588 104.883 27.516 105.041C27.6732 105.2 27.7616 105.415 27.7616 105.639C27.7616 105.75 27.7398 105.86 27.6977 105.962C27.6555 106.064 27.5936 106.157 27.5157 106.235C27.4378 106.313 27.3453 106.375 27.2437 106.417C27.142 106.459 27.033 106.481 26.9232 106.48Z" fill="white"/>
<path id="Vector_52" d="M15.912 110.409H10.0796C9.85726 110.409 9.644 110.32 9.48677 110.161C9.32954 110.003 9.24121 109.788 9.24121 109.563C9.24121 109.453 9.26293 109.343 9.30512 109.241C9.34731 109.138 9.40914 109.045 9.48705 108.967C9.56497 108.889 9.65743 108.827 9.75912 108.785C9.86081 108.743 9.96973 108.722 10.0796 108.722H15.912C16.1335 108.722 16.3461 108.811 16.5032 108.968C16.6603 109.126 16.7492 109.34 16.7504 109.563C16.7492 109.787 16.6605 110.002 16.5035 110.16C16.3465 110.318 16.134 110.408 15.912 110.409Z" fill="white"/>
</g>
<g id="Group_4" opacity="0.3">
<path id="Vector_53" d="M17.8101 118.226H10.064C9.95389 118.226 9.84487 118.204 9.74315 118.162C9.64143 118.119 9.549 118.057 9.47115 117.978C9.3933 117.9 9.33154 117.807 9.2894 117.704C9.24727 117.602 9.22559 117.492 9.22559 117.381C9.22558 117.27 9.24731 117.16 9.2895 117.058C9.33168 116.955 9.39351 116.862 9.47143 116.784C9.54934 116.706 9.6418 116.644 9.74349 116.602C9.84519 116.56 9.95411 116.539 10.064 116.54H17.8101C17.92 116.539 18.0289 116.56 18.1306 116.602C18.2323 116.644 18.3248 116.706 18.4027 116.784C18.4806 116.862 18.5424 116.955 18.5846 117.058C18.6268 117.16 18.6485 117.27 18.6485 117.381C18.6485 117.492 18.6268 117.602 18.5847 117.704C18.5425 117.807 18.4808 117.9 18.4029 117.978C18.3251 118.057 18.2327 118.119 18.1309 118.162C18.0292 118.204 17.9202 118.226 17.8101 118.226Z" fill="white"/>
<path id="Vector_54" d="M25.025 122.137H10.0796C9.85726 122.137 9.644 122.048 9.48677 121.889C9.32954 121.731 9.24121 121.515 9.24121 121.291C9.24121 121.18 9.26293 121.071 9.30512 120.968C9.34731 120.866 9.40914 120.773 9.48705 120.695C9.56497 120.617 9.65743 120.555 9.75912 120.513C9.86081 120.471 9.96973 120.45 10.0796 120.45H25.025C25.2466 120.45 25.4592 120.539 25.6163 120.696C25.7734 120.854 25.8622 121.068 25.8634 121.291C25.8634 121.515 25.7751 121.731 25.6179 121.889C25.4607 122.048 25.2474 122.137 25.025 122.137Z" fill="white"/>
</g>
<path id="Vector_55" opacity="0.3" d="M36.4065 138.197H80.8691L80.8691 63.1866H36.4065L36.4065 138.197Z" fill="white"/>
<g id="Group_5" opacity="0.2">
<path id="Vector_56" d="M43.4207 71.2513H55.7233C55.8383 71.2599 55.9538 71.2444 56.0626 71.2059C56.1714 71.1674 56.2712 71.1067 56.3557 71.0276C56.4401 70.9484 56.5075 70.8526 56.5536 70.746C56.5997 70.6394 56.6235 70.5243 56.6235 70.408C56.6235 70.2918 56.5997 70.1767 56.5536 70.0701C56.5075 69.9635 56.4401 69.8677 56.3557 69.7885C56.2712 69.7094 56.1714 69.6487 56.0626 69.6102C55.9538 69.5717 55.8383 69.5562 55.7233 69.5648H43.4207C43.3057 69.5562 43.1902 69.5717 43.0814 69.6102C42.9726 69.6487 42.8728 69.7094 42.7883 69.7885C42.7038 69.8677 42.6365 69.9635 42.5904 70.0701C42.5443 70.1767 42.5205 70.2918 42.5205 70.408C42.5205 70.5243 42.5443 70.6394 42.5904 70.746C42.6365 70.8526 42.7038 70.9484 42.7883 71.0276C42.8728 71.1067 42.9726 71.1674 43.0814 71.2059C43.1902 71.2444 43.3057 71.2599 43.4207 71.2513Z" fill="#081411"/>
<path id="Vector_57" d="M72.1082 78.1766H48.8699C48.7549 78.168 48.6394 78.1835 48.5306 78.222C48.4218 78.2605 48.322 78.3212 48.2375 78.4003C48.1531 78.4795 48.0857 78.5754 48.0396 78.6819C47.9935 78.7885 47.9697 78.9036 47.9697 79.0199C47.9697 79.1362 47.9935 79.2512 48.0396 79.3578C48.0857 79.4644 48.1531 79.5603 48.2375 79.6394C48.322 79.7185 48.4218 79.7793 48.5306 79.8177C48.6394 79.8562 48.7549 79.8717 48.8699 79.8631H72.1082C72.2232 79.8717 72.3387 79.8562 72.4475 79.8177C72.5563 79.7793 72.6561 79.7185 72.7406 79.6394C72.825 79.5603 72.8924 79.4644 72.9385 79.3578C72.9846 79.2512 73.0084 79.1362 73.0084 79.0199C73.0084 78.9036 72.9846 78.7885 72.9385 78.6819C72.8924 78.5754 72.825 78.4795 72.7406 78.4003C72.6561 78.3212 72.5563 78.2605 72.4475 78.222C72.3387 78.1835 72.2232 78.168 72.1082 78.1766Z" fill="#081411"/>
<path id="Vector_58" d="M43.4207 83.7877H72.0357C72.2468 83.772 72.4442 83.6763 72.5882 83.5199C72.7323 83.3635 72.8123 83.1579 72.8123 82.9444C72.8123 82.731 72.7323 82.5254 72.5882 82.369C72.4442 82.2126 72.2468 82.1169 72.0357 82.1012H43.4207C43.3057 82.0926 43.1902 82.1081 43.0814 82.1465C42.9726 82.185 42.8728 82.2458 42.7883 82.3249C42.7038 82.404 42.6365 82.4999 42.5904 82.6065C42.5443 82.7131 42.5205 82.8281 42.5205 82.9444C42.5205 83.0607 42.5443 83.1758 42.5904 83.2823C42.6365 83.3889 42.7038 83.4848 42.7883 83.564C42.8728 83.6431 42.9726 83.7038 43.0814 83.7423C43.1902 83.7808 43.3057 83.7962 43.4207 83.7877Z" fill="#081411"/>
<path id="Vector_59" d="M72.1112 86.7838H43.4051C43.2901 86.7752 43.1745 86.7907 43.0657 86.8292C42.9569 86.8677 42.8572 86.9284 42.7727 87.0075C42.6882 87.0867 42.6208 87.1825 42.5747 87.2891C42.5287 87.3957 42.5049 87.5108 42.5049 87.627C42.5049 87.7433 42.5287 87.8584 42.5747 87.965C42.6208 88.0716 42.6882 88.1674 42.7727 88.2466C42.8572 88.3257 42.9569 88.3864 43.0657 88.4249C43.1745 88.4634 43.2901 88.4789 43.4051 88.4703H72.1112C72.2262 88.4789 72.3417 88.4634 72.4505 88.4249C72.5593 88.3864 72.6591 88.3257 72.7435 88.2466C72.828 88.1674 72.8954 88.0716 72.9415 87.965C72.9876 87.8584 73.0114 87.7433 73.0114 87.627C73.0114 87.5108 72.9876 87.3957 72.9415 87.2891C72.8954 87.1825 72.828 87.0867 72.7435 87.0075C72.6591 86.9284 72.5593 86.8677 72.4505 86.8292C72.3417 86.7907 72.2262 86.7752 72.1112 86.7838Z" fill="#081411"/>
<path id="Vector_60" d="M43.4207 92.3993H72.0357C72.2468 92.3835 72.4442 92.2879 72.5882 92.1315C72.7323 91.9751 72.8123 91.7695 72.8123 91.556C72.8123 91.3425 72.7323 91.137 72.5882 90.9805C72.4442 90.8241 72.2468 90.7285 72.0357 90.7127H43.4207C43.3057 90.7042 43.1902 90.7196 43.0814 90.7581C42.9726 90.7966 42.8728 90.8573 42.7883 90.9365C42.7038 91.0156 42.6365 91.1115 42.5904 91.2181C42.5443 91.3247 42.5205 91.4397 42.5205 91.556C42.5205 91.6723 42.5443 91.7873 42.5904 91.8939C42.6365 92.0005 42.7038 92.0964 42.7883 92.1755C42.8728 92.2547 42.9726 92.3154 43.0814 92.3539C43.1902 92.3924 43.3057 92.4078 43.4207 92.3993Z" fill="#081411"/>
<path id="Vector_61" d="M72.1112 95.3956H43.4051C43.2901 95.387 43.1745 95.4025 43.0657 95.441C42.9569 95.4795 42.8572 95.5402 42.7727 95.6193C42.6882 95.6985 42.6208 95.7943 42.5747 95.9009C42.5287 96.0075 42.5049 96.1226 42.5049 96.2389C42.5049 96.3551 42.5287 96.4702 42.5747 96.5768C42.6208 96.6834 42.6882 96.7793 42.7727 96.8584C42.8572 96.9375 42.9569 96.9982 43.0657 97.0367C43.1745 97.0752 43.2901 97.0907 43.4051 97.0821H72.1112C72.2262 97.0907 72.3417 97.0752 72.4505 97.0367C72.5593 96.9982 72.6591 96.9375 72.7435 96.8584C72.828 96.7793 72.8954 96.6834 72.9415 96.5768C72.9876 96.4702 73.0114 96.3551 73.0114 96.2389C73.0114 96.1226 72.9876 96.0075 72.9415 95.9009C72.8954 95.7943 72.828 95.6985 72.7435 95.6193C72.6591 95.5402 72.5593 95.4795 72.4505 95.441C72.3417 95.4025 72.2262 95.387 72.1112 95.3956Z" fill="#081411"/>
<path id="Vector_62" d="M43.4207 100.997H65.6566C65.8676 100.982 66.065 100.886 66.2091 100.73C66.3531 100.573 66.4332 100.368 66.4332 100.154C66.4332 99.9407 66.3531 99.7351 66.2091 99.5787C66.065 99.4223 65.8676 99.3266 65.6566 99.3109H43.4207C43.3057 99.3023 43.1902 99.3178 43.0814 99.3563C42.9726 99.3948 42.8728 99.4555 42.7883 99.5346C42.7038 99.6138 42.6365 99.7096 42.5904 99.8162C42.5443 99.9228 42.5205 100.038 42.5205 100.154C42.5205 100.27 42.5443 100.385 42.5904 100.492C42.6365 100.599 42.7038 100.695 42.7883 100.774C42.8728 100.853 42.9726 100.914 43.0814 100.952C43.1902 100.991 43.3057 101.006 43.4207 100.997Z" fill="#081411"/>
<path id="Vector_63" d="M48.8855 109.614H72.0327C72.2438 109.598 72.4412 109.502 72.5852 109.346C72.7293 109.189 72.8093 108.984 72.8093 108.77C72.8093 108.557 72.7293 108.351 72.5852 108.195C72.4412 108.039 72.2438 107.943 72.0327 107.927H48.8855C48.7705 107.919 48.655 107.934 48.5462 107.972C48.4374 108.011 48.3377 108.072 48.2532 108.151C48.1687 108.23 48.1013 108.326 48.0552 108.432C48.0091 108.539 47.9854 108.654 47.9854 108.77C47.9854 108.887 48.0091 109.002 48.0552 109.108C48.1013 109.215 48.1687 109.311 48.2532 109.39C48.3377 109.469 48.4374 109.53 48.5462 109.568C48.655 109.607 48.7705 109.622 48.8855 109.614Z" fill="#081411"/>
<path id="Vector_64" d="M72.1112 112.615H43.4051C43.2901 112.606 43.1745 112.621 43.0657 112.66C42.9569 112.698 42.8572 112.759 42.7727 112.838C42.6882 112.917 42.6208 113.013 42.5747 113.12C42.5287 113.227 42.5049 113.342 42.5049 113.458C42.5049 113.574 42.5287 113.689 42.5747 113.796C42.6208 113.902 42.6882 113.998 42.7727 114.077C42.8572 114.157 42.9569 114.217 43.0657 114.256C43.1745 114.294 43.2901 114.31 43.4051 114.301H72.1112C72.2262 114.31 72.3417 114.294 72.4505 114.256C72.5593 114.217 72.6591 114.157 72.7435 114.077C72.828 113.998 72.8954 113.902 72.9415 113.796C72.9876 113.689 73.0114 113.574 73.0114 113.458C73.0114 113.342 72.9876 113.227 72.9415 113.12C72.8954 113.013 72.828 112.917 72.7435 112.838C72.6591 112.759 72.5593 112.698 72.4505 112.66C72.3417 112.621 72.2262 112.606 72.1112 112.615Z" fill="#081411"/>
<path id="Vector_65" d="M43.4207 118.225H72.0357C72.2468 118.21 72.4442 118.114 72.5882 117.958C72.7323 117.801 72.8123 117.596 72.8123 117.382C72.8123 117.169 72.7323 116.963 72.5882 116.807C72.4442 116.65 72.2468 116.555 72.0357 116.539H43.4207C43.3057 116.53 43.1902 116.546 43.0814 116.584C42.9726 116.623 42.8728 116.684 42.7883 116.763C42.7038 116.842 42.6365 116.938 42.5904 117.044C42.5443 117.151 42.5205 117.266 42.5205 117.382C42.5205 117.498 42.5443 117.613 42.5904 117.72C42.6365 117.827 42.7038 117.923 42.7883 118.002C42.8728 118.081 42.9726 118.142 43.0814 118.18C43.1902 118.219 43.3057 118.234 43.4207 118.225Z" fill="#081411"/>
<path id="Vector_66" d="M66.1877 121.217H43.4051C43.2901 121.209 43.1745 121.224 43.0657 121.263C42.9569 121.301 42.8572 121.362 42.7727 121.441C42.6882 121.52 42.6208 121.616 42.5747 121.722C42.5287 121.829 42.5049 121.944 42.5049 122.06C42.5049 122.177 42.5287 122.292 42.5747 122.398C42.6208 122.505 42.6882 122.601 42.7727 122.68C42.8572 122.759 42.9569 122.82 43.0657 122.858C43.1745 122.897 43.2901 122.912 43.4051 122.904H66.1877C66.3027 122.912 66.4182 122.897 66.527 122.858C66.6358 122.82 66.7356 122.759 66.8201 122.68C66.9045 122.601 66.9719 122.505 67.018 122.398C67.0641 122.292 67.0879 122.177 67.0879 122.06C67.0879 121.944 67.0641 121.829 67.018 121.722C66.9719 121.616 66.9045 121.52 66.8201 121.441C66.7356 121.362 66.6358 121.301 66.527 121.263C66.4182 121.224 66.3027 121.209 66.1877 121.217Z" fill="#081411"/>
<path id="Vector_67" d="M72.1112 129.834H43.4051C43.2901 129.825 43.1745 129.84 43.0657 129.879C42.9569 129.917 42.8572 129.978 42.7727 130.057C42.6882 130.136 42.6208 130.232 42.5747 130.339C42.5287 130.446 42.5049 130.561 42.5049 130.677C42.5049 130.793 42.5287 130.908 42.5747 131.015C42.6208 131.121 42.6882 131.217 42.7727 131.296C42.8572 131.376 42.9569 131.436 43.0657 131.475C43.1745 131.513 43.2901 131.529 43.4051 131.52H72.1112C72.2262 131.529 72.3417 131.513 72.4505 131.475C72.5593 131.436 72.6591 131.376 72.7435 131.296C72.828 131.217 72.8954 131.121 72.9415 131.015C72.9876 130.908 73.0114 130.793 73.0114 130.677C73.0114 130.561 72.9876 130.446 72.9415 130.339C72.8954 130.232 72.828 130.136 72.7435 130.057C72.6591 129.978 72.5593 129.917 72.4505 129.879C72.3417 129.84 72.2262 129.825 72.1112 129.834Z" fill="#081411"/>
</g>
<g id="Group_6" opacity="0.3">
<path id="Vector_68" d="M22.3666 71.2517H10.064C9.95411 71.2523 9.84519 71.231 9.74349 71.189C9.6418 71.147 9.54934 71.0852 9.47143 71.007C9.39351 70.9289 9.33168 70.836 9.2895 70.7336C9.24731 70.6313 9.22558 70.5216 9.22559 70.4107C9.22559 70.2997 9.24727 70.1897 9.2894 70.0872C9.33154 69.9846 9.3933 69.8914 9.47115 69.8128C9.549 69.7343 9.64143 69.672 9.74315 69.6295C9.84487 69.5871 9.95389 69.5652 10.064 69.5652H22.3666C22.589 69.5652 22.8022 69.6543 22.9595 69.8128C23.1167 69.9714 23.205 70.1865 23.205 70.4107C23.205 70.5216 23.1833 70.6313 23.1411 70.7336C23.0989 70.836 23.0371 70.9289 22.9592 71.007C22.8813 71.0852 22.7888 71.147 22.6871 71.189C22.5854 71.231 22.4765 71.2523 22.3666 71.2517Z" fill="white"/>
<path id="Vector_69" d="M15.912 75.1807H10.0796C9.85726 75.1807 9.644 75.0916 9.48677 74.933C9.32954 74.7744 9.24121 74.5594 9.24121 74.3351C9.24121 74.2243 9.26293 74.1146 9.30512 74.0122C9.34731 73.9099 9.40914 73.817 9.48705 73.7388C9.56497 73.6607 9.65743 73.5988 9.75912 73.5568C9.86081 73.5149 9.96973 73.4935 10.0796 73.4942H15.912C16.1335 73.4966 16.3451 73.5874 16.5005 73.7467C16.6559 73.906 16.7425 74.1208 16.7413 74.3443C16.7377 74.565 16.6492 74.7757 16.4945 74.9318C16.3397 75.0879 16.1308 75.1771 15.912 75.1807Z" fill="white"/>
</g>
</g>
</g>
</svg>
